<svg width="800" height="600" xmlns="http://www.w3.org/2000/svg">

 <g>
  <title>Layer 1</title>
  <path d="m124,112c-1,0 -3.08025,-0.68926 -6,0c-6.52876,1.54123 -9.93813,5.07858 -15,9c-3.95265,3.06211 -7.11214,7.9183 -10,12c-4.16493,5.8867 -8.88134,12.02521 -10,17c-0.90456,4.02266 -1,10 -1,17c0,8 -0.3593,14.06081 1,21c1.5852,8.09241 3.76137,15.04468 5,21c1.67917,8.07344 7.56287,18.63034 12,26c4.61351,7.6626 6.84786,13.84799 13,21c6.0123,6.98944 11.63972,10.629 20,15c6.74901,3.52859 15,6 23,6c13,0 22,0 31,0c13,0 22.18228,-3.59137 36,-10c6.08553,-2.82245 16.22916,-6.47577 24,-14c6.18004,-5.9839 9,-22 10,-32c1,-10 1.91501,-19.03494 1,-31c-1.00293,-13.11465 -2.78647,-24.05013 -5,-33c-2.73747,-11.06825 -6.51845,-21.27669 -13,-32c-7.46037,-12.34272 -15.23541,-18.73579 -22,-25c-6.22585,-5.76532 -11.77637,-9.40894 -17,-12c-4.82428,-2.39297 -13.13045,-4.48756 -18,-6c-7.27304,-2.25893 -10.95847,-3.49924 -20,-4c-2.99541,-0.1659 -9,0 -13,0c-5,0 -10.64117,1.55038 -15,4c-4.6946,2.63833 -8.21168,3.71412 -11,6c-2.18734,1.79319 -3.49346,3.87856 -4,7c-0.32037,1.97417 -2,4 -3,6c-1,2 -3.51301,5.59399 -5,8c-1.66251,2.68999 -2,5 -3,7l0,2" id="svg_1" stroke="#000" fill="none"/>
  <path d="m94,130c-1,0 -3,0 -4,0c-4,0 -10,-2 -15,-5c-5,-3 -11.97164,-7.04477 -23,-14c-7.97961,-5.03248 -13,-9 -17,-13c-2,-2 -4,-6 -4,-7c0,-4 -1,-7 -1,-10c0,-2 -0.68926,-7.08025 0,-10c0.51374,-2.17625 3.48626,-4.82375 4,-7c0.22975,-0.97325 0.12872,-2.13065 3,-3c3.45084,-1.04483 5.31001,-1.33749 8,-3c1.203,-0.7435 6,-1 10,-1c2,0 5,-2 7,-2c4,0 11,0 14,0c3,0 9,0 15,0c2,0 4.08025,-0.68926 7,0c2.17625,0.51374 5,3 7,5c2,2 4.21168,3.71412 7,6c1.09367,0.8966 3.07612,3.61732 4,4c1.30656,0.5412 2.07612,2.61732 3,3c1.30656,0.5412 2.91761,1.38687 4,4c0.38268,0.92388 0,2 0,3l1,2l3,3l1,1" id="svg_2" stroke="#000" fill="none"/>
  <path d="m192,83c0,-1 1,-3 5,-5c6,-3 13.02016,-4.9534 20,-8c9.02646,-3.93992 17.47125,-7.45877 24,-9c5.83949,-1.37852 12,-2 15,-2c2,0 3,0 4,0c1,0 2.61383,-0.703 5,2c1.47983,1.67633 2.9725,2.6475 4,7c0.91901,3.893 1,6 1,8c0,3 -2,6 -2,8c0,2 -1,4 -2,7c-1,3 -0.83771,4.83772 -4,8c-1.58115,1.58114 -3.34619,1.70546 -5,4c-1.30745,1.814 -1.4588,2.69344 -2,4c-0.38269,0.92388 -1.61731,2.07612 -2,3c-0.5412,1.30656 -2,2 -3,2c-1,0 -2,0 -3,0c-1,0 -1.61731,2.07612 -2,3c-0.5412,1.30656 -1,3 -3,3l-1,1l0,1l-1,1" id="svg_3" stroke="#000" fill="none"/>
  <path d="m176,169c2,0 3,0 5,0c3,0 4,0 6,0c3,0 5.31001,-0.66251 8,1c1.203,0.7435 4.41885,3.41885 6,5c1.58115,1.58115 2,4 2,6c0,4 0,6 0,11c0,3 0.46764,7.19891 -1,10c-2.32053,4.42889 -4.79488,6.22021 -8,9c-3.77727,3.27602 -8.50424,5.03552 -13,8c-2.36128,1.55702 -5,2 -7,2c-2,0 -5.03874,0.48055 -8,0c-3.12144,-0.50655 -5.69255,-4.186 -7,-6c-0.8269,-1.14726 -2,-2 -2,-4c0,-1 0,-3 0,-4l0,-1l1,-1l0,-1" id="svg_4" stroke="#000" fill="none"/>
  <path d="m144,233c1,1 1.05132,1.68378 2,2c4.74342,1.58115 8,6 11,8c3,2 5.9258,3.49756 11,4c3.98053,0.39415 7,0 10,0c4,0 9,0 12,0c3,0 6,0 9,0c4,0 6,0 7,0c3,0 4.85274,-2.1731 6,-3c1.814,-1.30745 2.34619,-2.70546 4,-5c1.30745,-1.814 1,-4 1,-7c0,-3 0,-4 1,-6l2,-1" id="svg_5" stroke="#000" fill="none"/>
  <path d="m154,139c-1,0 -2,0 -3,0c-2,0 -6,0 -7,0c-2,0 -3,0 -4,0c-1,0 -2.07613,-0.38269 -3,0c-1.30656,0.5412 -2,5 -2,7c0,4 1,8 3,11c2,3 3.90633,5.10341 5,6c2.78833,2.28587 4.88152,3.19028 8,5c1.93399,1.12234 5,1 8,1c1,0 1.49269,-3.02434 1,-8c-0.50244,-5.0742 -0.19577,-10.64886 -4,-13c-0.85065,-0.52573 -2,-3 -3,-3l-1,0l-1,-2" id="svg_6" stroke="#000" fill="none"/>
  <path d="m187,142c1,0 0.13065,3.12872 1,6c1.04483,3.45085 3.71413,8.21167 6,11c0.89659,1.09367 2,2 4,2c2,0 4.02582,0.32036 6,0c3.12144,-0.50655 3,-4 3,-10c0,-5 -0.69255,-10.186 -2,-12c-0.8269,-1.14726 -0.38687,-3.9176 -3,-5c-0.92387,-0.38269 -2,0 -3,0c-1,0 -3,0 -5,0l-1,0" id="svg_7" stroke="#000" fill="none"/>
 </g>
</svg>